<svg xmlns="http://www.w3.org/2000/svg" width="32.701" height="32.637" viewBox="0 0 32.701 32.637">
  <path id="Path_57" data-name="Path 57" d="M1020.7,314.287a2.235,2.235,0,1,1-3.69-1.7,12.8,12.8,0,0,0-10.917-10.957,2.234,2.234,0,0,1-3.489,0A12.8,12.8,0,0,0,991.69,312.59a2.235,2.235,0,1,1-2.545-.254,15.214,15.214,0,0,1,4.367-8.888,15.49,15.49,0,0,1,2.358-1.935h-3.8a2.235,2.235,0,1,1,0-2.555h10.447a2.235,2.235,0,0,1,3.668,0h10.447a2.235,2.235,0,1,1,0,2.555h-3.8a15.49,15.49,0,0,1,2.358,1.935,15.215,15.215,0,0,1,4.367,8.888,2.234,2.234,0,0,1,1.145,1.951Zm-9.856.86a5.034,5.034,0,0,1-.144,4.989,1.277,1.277,0,1,1-2.179-1.334,2.472,2.472,0,0,0,.072-2.446l-3.094-5.686v4.93a5.049,5.049,0,0,1,.638,1.793,1.916,1.916,0,1,1-3.832,0,5.065,5.065,0,0,1,.64-1.8v-4.652l-2.967,5.442a2.472,2.472,0,0,0,.065,2.438l2.523,4.022h4.274a1.278,1.278,0,0,1,1.277,1.277v3.534a2.98,2.98,0,0,1-2.974,2.979l-1.708,0h0a2.977,2.977,0,0,1-2.977-2.974v-3.378l-2.579-4.112-.008-.013a5.036,5.036,0,0,1-.137-4.986l0-.008,5.445-9.987a1.277,1.277,0,0,1,1.121-.666h0a1.277,1.277,0,0,1,1.121.667l5.419,9.958,0,.007Zm-5.282,10.254h-2.553v2.261a.423.423,0,0,0,.423.421h0l1.708,0a.423.423,0,0,0,.422-.423Zm0,0" transform="translate(-988 -298)" fill="#fff"/>
</svg>
