<svg xmlns="http://www.w3.org/2000/svg" width="39.214" height="36.763" viewBox="0 0 39.214 36.763">
  <path id="Union_3" data-name="Union 3" d="M2.3,36.763a2.3,2.3,0,0,1-2.3-2.3V2.3A2.3,2.3,0,0,1,2.3,0H36.916a2.3,2.3,0,0,1,2.3,2.3V34.466a2.3,2.3,0,0,1-2.3,2.3Zm-.766-2.3a.766.766,0,0,0,.766.765H36.916a.766.766,0,0,0,.766-.765V7.659H1.532Zm0-32.168V6.127H37.683V2.3a.767.767,0,0,0-.766-.766H2.3A.767.767,0,0,0,1.532,2.3ZM17.321,31.277,20.384,12.9a.766.766,0,1,1,1.511.252L18.831,31.529a.766.766,0,1,1-1.511-.252Zm7.871-2.4a.767.767,0,0,1,0-1.083l5.586-5.585-5.586-5.585a.767.767,0,0,1,1.084-1.084L32.4,21.67a.765.765,0,0,1,0,1.083L26.276,28.88a.766.766,0,0,1-1.084,0Zm-12.254,0L6.811,22.753a.767.767,0,0,1,0-1.083l6.128-6.128a.766.766,0,1,1,1.083,1.084L8.436,22.211,14.021,27.8a.766.766,0,1,1-1.083,1.083ZM27.266,4.6a.766.766,0,1,1,0-1.532h6.587a.766.766,0,0,1,0,1.532Zm-3.83-.765A.766.766,0,1,1,24.2,4.6.766.766,0,0,1,23.437,3.83Zm-12.255,0a.766.766,0,1,1,.766.765A.766.766,0,0,1,11.182,3.83Zm-3.063,0a.766.766,0,1,1,.766.765A.766.766,0,0,1,8.118,3.83Zm-3.063,0a.766.766,0,1,1,.766.765A.766.766,0,0,1,5.055,3.83Z" fill="#fff"/>
</svg>
